<svg width="58" height="58" fill="none" xmlns="http://www.w3.org/2000/svg"><g filter="url(#a)"><circle cx="29" cy="25" r="25" fill="#1DB7AE"/></g><g filter="url(#b)"><path d="M13.6066 33.363c-.6014-.3465-.9913-.8515-1.1697-1.5151-.1785-.6636-.0944-1.2961.2521-1.8975l9.7725-16.9599c.402-.6977.9916-1.151 1.7689-1.36.7774-.209 1.5148-.1125 2.2125.2895l3.2476 1.8713 2.703-4.69105c.1802-.31274.4315-.51243.7538-.59909.3223-.08666.6398-.03989.9526.14031l6.4953 3.74263c.3127.1802.5124.4315.5991.7538.0866.3223.0398.6398-.1404.9525l-2.703 4.6911 3.6085 2.0792c.6014.3466.9914.8516 1.1698 1.5152.1784.6635.0943 1.296-.2522 1.8975l-9.9804 17.3207c-.3465.6015-.8516.9914-1.5151 1.1698-.6636.1784-1.2961.0943-1.8975-.2522-.2357.409-.5715.6721-1.0076.7893-.436.1173-.8585.0581-1.2675-.1776-.409-.2356-.6721-.5715-.7893-1.0076-.1173-.436-.0581-.8585.1776-1.2675l-10.1038-5.8219c-.2357.409-.5715.6721-1.0076.7893-.436.1173-.8585.0581-1.2675-.1776-.409-.2356-.6721-.5715-.7893-1.0075-.1173-.4361-.0581-.8586.1776-1.2676Zm17.5273-18.74 5.7736 3.3268 2.4951-4.3302-5.7736-3.3268-2.4951 4.3302ZM14.8541 31.198l15.8774 9.1486 9.9804-17.3208-15.8774-9.1486-9.9804 17.3208Z" fill="#FBFBFD"/><path d="M20.0712 30.0883c.1965.1157.4173.1337.6626.0542.2453-.0796.4331-.2302.5637-.4519.1305-.2217.171-.4591.1215-.7122-.0494-.253-.1724-.4373-.3689-.553-.1965-.1157-.4173-.1337-.6626-.0542-.2452.0796-.4331.2302-.5637.4519-.1305.2217-.171.4591-.1215.7122.0494.253.1724.4374.3689.553Zm2.6757-4.5453c.1965.1157.4173.1337.6626.0542.2452-.0796.4331-.2302.5637-.4519.1305-.2217.171-.4591.1215-.7122-.0494-.253-.1724-.4374-.3689-.553-.1965-.1157-.4173-.1337-.6626-.0542-.2453.0795-.4331.2302-.5637.4519-.1305.2217-.171.4591-.1215.7121.0494.2531.1724.4374.3689.5531Zm2.6757-4.5453c.1965.1156.4173.1337.6626.0542.2452-.0796.4331-.2302.5636-.4519.1306-.2218.1711-.4591.1216-.7122-.0494-.253-.1724-.4374-.3689-.553-.1965-.1157-.4174-.1338-.6626-.0542-.2453.0795-.4331.2302-.5637.4519-.1305.2217-.171.4591-.1215.7121.0494.2531.1724.4374.3689.5531Zm-2.1094 10.9991 5.9927 3.5277.9789-1.6629-5.9927-3.5278-.9789 1.663Zm2.6757-4.5454 5.9927 3.5278.9789-1.6629-5.9927-3.5278-.9789 1.6629Zm2.6756-4.5453 5.9928 3.5278.9789-1.663-5.9927-3.5277-.979 1.6629Zm-14.2489 10.048c-.3929-.2313-.6389-.6-.7378-1.1061-.099-.5061-.0179-.9808.2431-1.4243l9.7892-16.6292c.261-.4434.6368-.7447 1.1273-.9038.4905-.1591.9322-.123 1.3252.1084l14.7362 8.6747c.3929.2313.6389.6001.7378 1.1061.099.5061.0179.9809-.2431 1.4243l-4.8946 8.3146-4.8946 8.3146c-.261.4435-.6368.7447-1.1273.9038-.4905.1591-.9322.123-1.3252-.1083l-14.7362-8.6748Zm.979-1.6629 14.7361 8.6747 9.7892-16.6292-14.7362-8.6747-9.7891 16.6292Z" fill="#4FDE0C"/></g><defs><filter id="a" x="0" y="0" width="58" height="58" filterUnits="userSpaceOnUse" color-interpolation-filters="sRGB"><feFlood flood-opacity="0" result="BackgroundImageFix"/><feColorMatrix in="SourceAlpha" values="0 0 0 0 0 0 0 0 0 0 0 0 0 0 0 0 0 0 127 0" result="hardAlpha"/><feOffset dy="4"/><feGaussianBlur stdDeviation="2"/><feComposite in2="hardAlpha" operator="out"/><feColorMatrix values="0 0 0 0 0 0 0 0 0 0 0 0 0 0 0 0 0 0 0.25 0"/><feBlend in2="BackgroundImageFix" result="effect1_dropShadow_156_4"/><feBlend in="SourceGraphic" in2="effect1_dropShadow_156_4" result="shape"/></filter><filter id="b" x="8.34589" y="8.45898" width="38.8743" height="42.9005" filterUnits="userSpaceOnUse" color-interpolation-filters="sRGB"><feFlood flood-opacity="0" result="BackgroundImageFix"/><feColorMatrix in="SourceAlpha" values="0 0 0 0 0 0 0 0 0 0 0 0 0 0 0 0 0 0 127 0" result="hardAlpha"/><feOffset dy="4"/><feGaussianBlur stdDeviation="2"/><feComposite in2="hardAlpha" operator="out"/><feColorMatrix values="0 0 0 0 0 0 0 0 0 0 0 0 0 0 0 0 0 0 0.25 0"/><feBlend in2="BackgroundImageFix" result="effect1_dropShadow_156_4"/><feBlend in="SourceGraphic" in2="effect1_dropShadow_156_4" result="shape"/></filter></defs></svg>